HIERARCHY
ROOT Hips
{
    OFFSET 0.000000 0.000000 0.000000
    CHANNELS 6 Xposition Yposition Zposition Zrotation Xrotation Yrotation
    JOINT Spine
    {
        OFFSET -0.000000 7.897928 0.000000
        CHANNELS 3 Zrotation Xrotation Yrotation
        JOINT Spine1
        {
            OFFSET -0.000000 22.881742 0.000000
            CHANNELS 3 Zrotation Xrotation Yrotation
            JOINT Neck
            {
                OFFSET -0.000000 22.787771 2.071616
                CHANNELS 3 Zrotation Xrotation Yrotation
                JOINT Head
                {
                    OFFSET -0.000000 13.484266 -1.926324
                    CHANNELS 3 Zrotation Xrotation Yrotation
                    End Site
                    {
                        OFFSET -0.000000 24.079046 0.000000
                    }
                }
            }
            JOINT LeftShoulder
            {
                OFFSET 3.854963 21.096247 -0.110468
                CHANNELS 3 Zrotation Xrotation Yrotation
                JOINT LeftArm
                {
                    OFFSET 10.572188 0.000000 0.000000
                    CHANNELS 3 Zrotation Xrotation Yrotation
                    JOINT LeftForeArm
                    {
                        OFFSET 34.932854 0.000000 0.000000
                        CHANNELS 3 Zrotation Xrotation Yrotation
                        JOINT LeftHand
                        {
                            OFFSET 23.279285 0.000000 0.000000
                            CHANNELS 3 Zrotation Xrotation Yrotation
                            End Site
                            {
                                OFFSET 14.447429 0.000000 0.000000
                            }
                        }
                    }
                }
            }
            JOINT RightShoulder
            {
                OFFSET -3.825334 21.096247 -0.110468
                CHANNELS 3 Zrotation Xrotation Yrotation
                JOINT RightArm
                {
                    OFFSET -10.572188 0.000000 0.000000
                    CHANNELS 3 Zrotation Xrotation Yrotation
                    JOINT RightForeArm
                    {
                        OFFSET -34.932854 0.000000 0.000000
                        CHANNELS 3 Zrotation Xrotation Yrotation
                        JOINT RightHand
                        {
                            OFFSET -23.279285 0.000000 0.000000
                            CHANNELS 3 Zrotation Xrotation Yrotation
                            End Site
                            {
                                OFFSET -14.447429 0.000000 0.000000
                            }
                        }
                    }
                }
            }
        }
    }
    JOINT LeftUpLeg
    {
        OFFSET 9.631618 0.000000 0.000000
        CHANNELS 3 Zrotation Xrotation Yrotation
        JOINT LeftLeg
        {
            OFFSET -0.000000 -35.385456 0.000000
            CHANNELS 3 Zrotation Xrotation Yrotation
            JOINT LeftFoot
            {
                OFFSET -0.000000 -43.284000 0.000000
                CHANNELS 3 Zrotation Xrotation Yrotation
                JOINT LeftToeBase
                {
                    OFFSET -0.000000 -6.260552 14.447429
                    CHANNELS 3 Zrotation Xrotation Yrotation
                    End Site
                    {
                        OFFSET -0.000000 0.000000 3.852648
                    }
                }
            }
        }
    }
    JOINT RightUpLeg
    {
        OFFSET -9.631618 0.000000 0.000000
        CHANNELS 3 Zrotation Xrotation Yrotation
        JOINT RightLeg
        {
            OFFSET -0.000000 -35.385456 0.000000
            CHANNELS 3 Zrotation Xrotation Yrotation
            JOINT RightFoot
            {
                OFFSET -0.000000 -43.284000 0.000000
                CHANNELS 3 Zrotation Xrotation Yrotation
                JOINT RightToeBase
                {
                    OFFSET -0.000000 -6.260552 14.447429
                    CHANNELS 3 Zrotation Xrotation Yrotation
                    End Site
                    {
                        OFFSET -0.000000 0.000000 3.852648
                    }
                }
            }
        }
    }
}
MOTION
Frames:    10
Frame Time:    0.008333
23.818308    83.345505    47.338520    -1.299529    -1.313962    78.689980    -1.765794    -1.317193    -2.575475    2.177389    5.583056    -2.661383    0.418459    8.012919    -4.224009    5.104965    0.516178    -3.723328    -0.657275    11.620293    4.010059    -47.075466    56.977474    -12.627182    12.092538    -29.105730    -88.980415    8.820010    -16.930458    16.684963    -0.127883    11.882637    4.279690    43.634411    51.098183    24.365181    -7.555425    -21.295849    59.517269    -9.916651    -17.441179    2.767428    4.121298    -10.398089    2.759433    -13.879799    35.417648    -3.561715    11.240160    -23.132280    23.800421    0.000000    0.000000    0.000000    -12.184525    -36.156147    -1.180027    30.755739    65.932320    -27.081966    1.788941    -11.582796    1.176348    0.000000    0.000000    0.000000    
23.788496    83.114365    47.341766    -1.305247    -1.443002    79.108551    -1.765206    -1.236008    -2.818054    2.169910    5.631848    -2.905748    0.501217    7.822094    -4.246948    5.259623    0.424609    -3.728897    -0.353032    11.589955    3.862955    -45.603973    56.260929    -14.428782    12.293979    -28.946081    -89.903511    7.561143    -16.556593    16.564327    0.078333    12.048779    4.455571    44.116772    50.838150    23.217129    -7.348325    -21.494150    59.258247    -9.665194    -17.790169    2.982587    4.233650    -10.628761    3.066635    -13.719366    35.915585    -3.974983    11.989595    -23.506636    23.936249    0.000000    0.000000    0.000000    -12.377122    -36.511108    -1.208133    32.229202    66.411186    -28.641253    1.361110    -11.957582    1.284046    0.000000    0.000000    0.000000    
23.796955    82.944916    47.320480    -1.241935    -1.714851    79.621635    -1.129987    -0.884951    -3.315243    1.580502    5.257770    -3.379096    0.284905    7.977672    -4.048535    5.635061    0.202020    -3.441817    -0.136083    11.476322    4.185203    -44.654678    55.743851    -15.342919    12.524734    -28.795511    -90.856201    6.782554    -16.111731    15.843748    0.188365    12.390529    5.166379    45.177746    50.275448    21.689501    -6.841804    -21.573849    59.602055    -9.915228    -18.132803    3.047919    4.394392    -10.717662    3.264924    -13.407905    36.323574    -4.409380    12.559496    -23.847296    23.938667    0.000000    0.000000    0.000000    -12.501236    -36.625549    -1.454891    33.303749    66.754059    -29.633612    1.045372    -12.148549    1.376867    0.000000    0.000000    0.000000    
23.838642    82.888565    47.326660    -1.010537    -1.935312    80.064896    -1.213933    -0.651944    -3.342005    1.826648    5.494960    -3.422771    0.705635    7.785605    -4.243501    5.330732    -0.092181    -3.707956    0.655559    11.225446    3.597773    -44.441307    55.107555    -16.537617    12.986124    -28.681343    -91.659042    6.057345    -15.471721    15.218606    0.392102    12.187459    4.753561    45.770363    50.441402    20.120892    -6.524106    -22.076622    60.501617    -9.810453    -18.748747    3.003716    4.467107    -10.552453    3.406461    -12.980862    36.541924    -4.847123    12.710066    -24.006271    23.756117    0.000000    0.000000    0.000000    -12.538963    -36.416367    -1.516790    34.081715    66.840691    -30.304979    0.967360    -12.232038    1.467591    0.000000    0.000000    0.000000    
23.888159    82.904350    47.365372    -0.779795    -2.287481    80.444008    -0.816864    -0.194812    -3.523790    1.641903    5.281505    -3.598156    0.430066    7.476616    -4.358966    5.842675    0.313594    -3.754675    1.143697    11.095608    3.497859    -44.104675    54.627060    -17.257580    13.216701    -28.534136    -92.693771    5.912819    -14.841670    15.365001    0.570932    12.195812    4.812829    46.764099    50.385941    18.407337    -6.545108    -22.448795    61.260044    -9.075504    -19.056273    3.166623    4.759171    -10.304745    3.515412    -12.681491    36.657986    -5.223547    12.747970    -24.090153    23.557606    0.000000    0.000000    0.000000    -12.263742    -36.075211    -1.494323    34.375454    66.722366    -30.510983    1.032832    -12.106342    1.557092    0.000000    0.000000    0.000000    
23.958124    83.046028    47.395741    -0.528619    -2.505612    80.809219    -0.579823    0.287173    -3.709627    1.572357    4.959263    -3.779186    0.209745    7.566751    -4.361509    6.117100    0.263054    -3.698091    1.348297    11.048543    3.531400    -43.487965    54.385139    -18.068436    13.629518    -28.766459    -93.538887    5.168190    -14.579687    14.792586    0.610286    12.261540    4.862971    47.709991    50.268368    16.877516    -6.457825    -22.709822    62.076912    -8.516298    -19.309383    3.321716    4.883967    -9.958039    3.427133    -12.422107    36.497971    -5.446837    12.460427    -23.891705    23.262917    0.000000    0.000000    0.000000    -12.042898    -35.592300    -1.522287    34.125446    66.385185    -30.277147    1.294598    -11.795583    1.695802    0.000000    0.000000    0.000000    
24.020952    83.286026    47.443832    -0.496211    -2.854472    81.210548    -0.130122    0.555540    -3.900796    1.422108    4.624088    -3.958847    0.559515    7.658895    -4.330211    5.545185    0.235792    -3.772289    1.868518    10.948913    3.393346    -43.621552    54.235317    -18.359663    13.965795    -28.933880    -94.383545    5.295493    -14.173974    14.755116    0.810644    12.355510    4.745839    48.353100    50.198727    15.581017    -5.968927    -22.713572    63.117371    -9.685798    -19.541647    3.169565    5.210968    -9.715597    3.193275    -12.273767    36.109863    -5.704420    12.165295    -23.505198    23.099871    0.000000    0.000000    0.000000    -11.666698    -35.144352    -1.363248    34.214420    65.682281    -30.300806    1.529206    -11.367317    1.589408    0.000000    0.000000    0.000000    
24.161240    83.608093    47.453655    -0.403699    -2.939081    81.727898    0.029826    0.637145    -4.157161    1.385698    4.549345    -4.212039    0.765560    7.852676    -4.226104    5.072635    -0.028170    -3.733917    2.149522    10.761339    3.378298    -43.459694    54.347332    -18.772877    14.169313    -29.674328    -95.350235    4.507842    -14.621879    14.613302    0.768441    12.394033    4.613316    49.025696    50.204857    14.574059    -6.242579    -22.795246    63.683159    -9.515163    -19.411087    3.038986    5.099931    -9.255148    2.685767    -11.967812    35.348389    -5.984806    11.731216    -22.858358    22.977398    0.000000    0.000000    0.000000    -11.700418    -34.483162    -1.535053    34.011635    64.884979    -29.811579    1.664093    -11.019979    1.409919    0.000000    0.000000    0.000000    
24.269829    84.023438    47.499928    -0.396022    -3.082929    81.953575    0.171586    0.658041    -4.231947    1.405123    4.510143    -4.286308    0.983216    7.884607    -4.191075    4.667782    -0.027276    -3.772045    2.492105    10.716855    3.417028    -43.279739    54.574013    -19.270203    14.535112    -30.418772    -96.189507    4.284180    -14.833379    14.908895    0.729100    12.309021    4.327209    49.634964    50.265419    13.523136    -6.525836    -22.577961    64.355415    -8.964128    -18.957754    3.042313    5.152800    -8.689834    2.501670    -11.628571    34.285614    -5.813589    11.170373    -21.995571    22.221315    0.000000    0.000000    0.000000    -11.282540    -33.875923    -1.480778    33.003975    63.921177    -29.250383    1.859436    -10.539256    1.614651    0.000000    0.000000    0.000000    
24.387953    84.523125    47.541164    -0.439105    -3.190643    82.228989    0.265351    0.624694    -4.328386    1.506686    4.409009    -4.384948    1.092837    7.957388    -4.254342    4.308598    0.070398    -3.900683    2.787715    10.648326    3.416722    -43.261528    54.846603    -19.593491    14.915207    -31.111622    -96.731865    3.797259    -15.102071    14.572886    0.665941    12.342890    4.052918    50.099648    50.308254    12.775221    -6.055537    -22.321678    65.059242    -10.355392    -18.939236    2.772665    5.109640    -8.091660    2.254147    -11.141664    33.011288    -5.988002    10.219855    -21.035315    21.691269    0.000000    0.000000    0.000000    -10.892782    -33.204517    -1.436388    32.034637    62.769093    -28.039043    1.927431    -10.065371    0.956915    0.000000    0.000000    0.000000    
